<svg width="64" height="64" xmlns="http://www.w3.org/2000/svg">

 <g>
  <title>background</title>
  <rect fill="none" id="canvas_background" height="602" width="802" y="-1" x="-1"/>
 </g>
 <g>
  <title>Layer 1</title>
  <g stroke="null" id="outling-cut">
   <path stroke="null" id="svg_1" d="m17,21l0,9.2l-12.225,2.825a1,1 0 0 0 -0.67,0.528l-2,4a1,1 0 0 0 0.895,1.447l7,0a1,1 0 0 0 0,-2l-5.382,0l1.066,-2.132l12.43,-2.868l18.075,0a1,1 0 0 0 0,-2l-17.189,0l0,-4l2,0l0,1a1,1 0 0 0 1,1l4,0a1,1 0 0 0 1,-1l0,-1l4,0l0,1a1,1 0 0 0 2,0l0,-1l4,0l0,1a1,1 0 0 0 1,1l4,0a1,1 0 0 0 1,-1l0,-1l2,0l0,4l-4,0a1,1 0 0 0 0,2l4.886,0l12.43,2.868l1.066,2.132l-45.382,0a1,1 0 0 0 0,2l3.051,0a13,13 0 0 0 11.064,11.847l-0.731,0.975a2.865,2.865 0 0 0 0.7,4.1l0.459,0.306a2.84,2.84 0 0 0 3.457,-0.211a2.9,2.9 0 0 0 0.584,0.393a2.869,2.869 0 0 0 2.873,-0.18l0.456,-0.3a2.866,2.866 0 0 0 0.7,-4.1l-0.731,-0.975a13,13 0 0 0 11.067,-11.855l14.051,0a1,1 0 0 0 0.9,-1.447l-2,-4a1,1 0 0 0 -0.67,-0.528l-12.23,-2.825l0,-14.1a5.023,5.023 0 0 0 -3.952,-4.889l-2.838,-0.611a1,1 0 1 0 -0.42,1.955l2.839,0.608a3.014,3.014 0 0 1 2.371,2.937l0,3.9l-2,0l0,-1a1,1 0 0 0 -1,-1l-4,0a1,1 0 0 0 -1,1l0,1l-4,0l0,-1.136a1,1 0 0 0 -2,0l0,1.136l-4,0l0,-1a1,1 0 0 0 -1,-1l-4,0a1,1 0 0 0 -1,1l0,1l-2,0l0,-3.9a3.014,3.014 0 0 1 2.372,-2.934l9.58,-2.054a5.065,5.065 0 0 1 2.095,0l2.932,0.629a1,1 0 1 0 0.42,-1.955l-2.933,-0.629a6.955,6.955 0 0 0 -2.933,0l-9.58,2.054a5.023,5.023 0 0 0 -3.953,4.889l0,4.9zm13.521,33.621a0.868,0.868 0 0 1 -0.867,-0.053l-0.458,-0.306a0.868,0.868 0 0 1 -0.213,-1.241l1.517,-2.021l0.5,0l0,2.847a0.861,0.861 0 0 1 -0.479,0.774zm4.282,-0.358l-0.455,0.3a0.87,0.87 0 0 1 -0.869,0.054a0.861,0.861 0 0 1 -0.479,-0.77l0,-2.847l0.5,0l1.517,2.021a0.868,0.868 0 0 1 -0.214,1.242zm-0.17,-5.293l0.262,-0.523a1,1 0 0 0 -1.79,-0.894l-0.723,1.447l-0.764,0l-0.718,-1.447a1,1 0 1 0 -1.79,0.894l0.262,0.523a11.009,11.009 0 0 1 -10.327,-9.97l25.91,0a11.009,11.009 0 0 1 -10.322,9.97zm10.367,-26.97l0,2l-2,0l0,-2l2,0zm-6,-2l2,0l0,6l-2,0l0,-6zm-2,2l0,2l-10,0l0,-2l10,0zm-14,-2l2,0l0,6l-2,0l0,-6zm-2,2l0,2l-2,0l0,-2l2,0z"/>
   <path stroke="null" id="svg_2" d="m23.29,14.29a1.045,1.045 0 0 0 -0.29,0.71a1,1 0 0 0 0.08,0.38a1.169,1.169 0 0 0 0.21,0.33a1.155,1.155 0 0 0 0.33,0.21a0.942,0.942 0 0 0 0.76,0a1.169,1.169 0 0 0 0.33,-0.21a1.011,1.011 0 0 0 0.29,-0.71a1,1 0 0 0 -1.71,-0.71z"/>
   <path stroke="null" id="svg_3" d="m40.38,15.92a1.169,1.169 0 0 0 0.33,-0.21a0.994,0.994 0 0 0 0.29,-0.71a1.05,1.05 0 0 0 -0.29,-0.71a1,1 0 0 0 -0.16,-0.12a0.568,0.568 0 0 0 -0.17,-0.09a0.609,0.609 0 0 0 -0.191,-0.06a1.025,1.025 0 0 0 -0.9,0.27a1.045,1.045 0 0 0 -0.289,0.71a0.99,0.99 0 0 0 1.38,0.92z"/>
   <path stroke="null" id="svg_4" d="m31.29,14.16a0.984,0.984 0 0 0 -0.21,0.319a1,1 0 0 0 -0.08,0.38a1.013,1.013 0 0 0 1.38,0.931a1.186,1.186 0 0 0 0.33,-0.221a1.009,1.009 0 0 0 0,-1.409a1.037,1.037 0 0 0 -1.42,0z"/>
   <path stroke="null" id="svg_5" d="m11,42a1,1 0 0 0 -1,-1l-7,0a1,1 0 0 0 0,2l7,0a1,1 0 0 0 1,-1z"/>
   <path stroke="null" id="svg_6" d="m13.8,41.02a0.636,0.636 0 0 0 -0.18,0.06a0.782,0.782 0 0 0 -0.181,0.09a1.7,1.7 0 0 0 -0.149,0.12a1.032,1.032 0 0 0 -0.21,0.33a1,1 0 0 0 1.63,1.09a1.169,1.169 0 0 0 0.21,-0.33a0.852,0.852 0 0 0 0.08,-0.38a1.05,1.05 0 0 0 -0.29,-0.71a1.01,1.01 0 0 0 -0.91,-0.27z"/>
   <path stroke="null" id="svg_7" d="m61,41l-11,0a1,1 0 0 0 0,2l11,0a1,1 0 0 0 0,-2z"/>
  </g>
  <rect id="svg_8" height="6.06246" width="2.03124" y="19.93738" x="22.96861" stroke-width="1.5" fill="#ffd645"/>
  <rect id="svg_9" height="6.06246" width="2.03124" y="19.99988" x="38.96851" stroke-width="1.5" fill="#ffd645"/>
 </g>
</svg>