<svg width="100" height="100" xmlns="http://www.w3.org/2000/svg">

 <g>
  <title>background</title>
  <rect fill="none" id="canvas_background" height="602" width="802" y="-1" x="-1"/>
 </g>
 <g>
  <title>Layer 1</title>
  <g id="svg_1">
   <path id="svg_2" d="m2.04,9.62459l0,6.35l3.29,0l0,57.37l43.88,0l0,8.011c-2.06,0.38 -3.63,2.18 -3.63,4.35c0,2.439 1.98,4.42 4.42,4.42c2.44,0 4.42,-1.98 4.42,-4.42c0,-2.17 -1.57,-3.97 -3.63,-4.35l0,-8.011l43.88,0l0,-57.37l3.29,0l0,-6.35l-95.92,0zm91.04,62.13l-86.16,0l0,-55.78l86.16,0l0,55.78z"/>
   <rect id="svg_3" y="55.12459" x="11.87" width="11.26" height="12.78"/>
   <rect fill="#ffd645" id="svg_4" y="51.95459" x="24.87" width="11.26" height="15.95"/>
   <rect id="svg_5" y="43.07459" x="37.87" width="11.26" height="24.83"/>
   <rect fill="#ffd645" id="svg_6" y="41.22459" x="50.87" width="11.26" height="26.68"/>
   <rect id="svg_7" y="33.50459" x="63.87" width="11.26" height="34.4"/>
   <rect fill="#ffd645" id="svg_8" y="21.86459" x="76.87" width="11.26" height="46.04"/>
   <polygon id="svg_9" points="22.191999435424805,44.762594774365425 56.19499969482422,28.997593477368355 53.724998474121094,35.73759324848652 55.21699905395508,36.28359468281269 58.61899948120117,26.999594286084175 49.33399963378906,23.596594408154488 48.78799819946289,25.08659417927265 55.527000427246094,27.55759485065937 21.52400016784668,43.32159288227558 "/>
  </g>
 </g>
</svg>